<svg xmlns="http://www.w3.org/2000/svg" xmlns:xlink="http://www.w3.org/1999/xlink" width="2000" zoomAndPan="magnify" viewBox="0 0 1500 1499.999933" height="2000" preserveAspectRatio="xMidYMid meet" version="1.0"><path fill="#000000" d="M 947.242188 172.238281 C 948.207031 191.027344 940.613281 225.363281 929.984375 250.277344 C 910.285156 296.453125 877.761719 331.871094 812.449219 378.292969 C 801.234375 386.28125 790.074219 394.351562 778.972656 402.5 C 770.28125 408.90625 762.75 414.148438 762.238281 414.148438 C 761.726562 414.148438 762.519531 411.972656 763.992188 409.308594 C 774.230469 390.8125 779.414062 369.699219 779.4375 346.367188 C 779.460938 323.929688 776.566406 310.695312 767.550781 291.988281 L 760.726562 277.835938 L 759.652344 290.5 C 757.230469 319.007812 748.453125 344.738281 733.207031 368.027344 C 714.738281 396.238281 695.554688 415.523438 653.253906 448.394531 C 586.289062 500.425781 552.414062 541.980469 542.1875 584.628906 C 540.605469 591.238281 539.304688 601.097656 539.296875 606.542969 L 539.289062 616.445312 L 525.300781 626.359375 C 468.277344 666.777344 433.945312 724.53125 437.074219 774.757812 C 438.191406 792.664062 442.207031 808.515625 449.660156 824.417969 C 455.371094 836.601562 464.703125 852.132812 466.316406 852.132812 C 466.765625 852.132812 466.882812 847.609375 466.578125 842.078125 C 464.101562 797.183594 509.683594 741.496094 565.554688 721.160156 C 586.546875 713.519531 600.046875 711.390625 627.183594 711.449219 C 655.390625 711.507812 671.664062 714.59375 687.078125 722.808594 C 707.84375 733.878906 718.550781 757.277344 712.925781 779.304688 C 709.417969 793.054688 702.738281 803.082031 687.367188 817.667969 C 676.722656 827.773438 668.71875 833.53125 650.125 844.464844 C 608.691406 868.824219 593.765625 879.519531 575.03125 898.28125 C 557.109375 916.234375 548.339844 929.105469 542.277344 946.347656 C 528.878906 984.472656 539.136719 1031.769531 570.308594 1075.574219 C 584.746094 1095.867188 628.78125 1144.402344 662.910156 1177.644531 L 670.554688 1185.09375 L 666.78125 1178.308594 C 657.566406 1161.746094 648.464844 1134.082031 645.058594 1112.3125 C 642.71875 1097.347656 643.109375 1067.851562 645.832031 1053.527344 C 657.261719 993.46875 709.445312 922.121094 785.097656 863.128906 C 790.421875 858.976562 808.1875 846.003906 824.574219 834.296875 C 872.140625 800.320312 891.695312 784.558594 914.050781 762.148438 C 925.570312 750.597656 940.476562 733.773438 947.171875 724.761719 C 976.964844 684.65625 997.058594 636.257812 1006.570312 581.683594 C 1010.542969 558.894531 1010.1875 511.355469 1005.871094 488.351562 C 1002.300781 469.316406 997.234375 452.015625 991.265625 438.492188 C 985.304688 424.988281 984.59375 424.65625 981.6875 434.039062 C 965.925781 484.984375 902.96875 520.625 814.308594 528.796875 C 804.570312 529.695312 796.351562 530.183594 796.046875 529.878906 C 795.746094 529.578125 802.710938 524.734375 811.527344 519.125 C 841.058594 500.320312 876.585938 476.441406 890.867188 465.800781 C 910.757812 450.984375 936.042969 425.25 947.164062 408.511719 C 969.941406 374.234375 979.664062 342.496094 981.273438 297.203125 C 982.824219 253.527344 973.625 210.445312 955.269531 175.417969 C 951.515625 168.25 948.054688 162.378906 947.585938 162.378906 C 947.117188 162.378906 946.960938 166.8125 947.242188 172.238281 M 911.707031 390.882812 C 902.425781 397.582031 882.417969 409.148438 843.195312 430.496094 C 803.386719 452.160156 797.164062 455.820312 774.402344 470.996094 C 726.488281 502.933594 685 547.453125 661.414062 592.238281 C 653 608.214844 653.792969 609.902344 664.800781 599.433594 C 693.09375 572.515625 723.871094 550.183594 805.207031 497.558594 C 852.441406 466.996094 882.808594 441.203125 901.660156 415.640625 C 910.128906 404.160156 919.976562 387.640625 918.964844 386.628906 C 918.648438 386.3125 915.382812 388.226562 911.707031 390.882812 M 1043.492188 506.511719 C 1055.742188 558.589844 1044.570312 628.027344 1013.890625 690.496094 C 998.238281 722.367188 982.507812 744.421875 958.636719 767.964844 C 940.628906 785.722656 921.210938 800.664062 878.949219 829.28125 C 839.988281 855.664062 828.300781 864.15625 802.226562 885.03125 C 737.933594 936.511719 693.03125 991.398438 676.523438 1038.6875 C 668.039062 1062.984375 664.835938 1089.792969 667.394531 1115.074219 C 673.222656 1172.773438 702.878906 1227.246094 761.441406 1287.828125 C 778.328125 1305.300781 785.3125 1310.96875 780.316406 1303.15625 C 776.722656 1297.535156 770.746094 1281.167969 767.121094 1267.027344 C 762.53125 1249.125 762 1209.925781 766.140625 1194.777344 C 775.945312 1158.90625 802.28125 1127.402344 848.226562 1096.578125 C 856.632812 1090.9375 878.882812 1077.457031 897.675781 1066.621094 C 964.804688 1027.910156 981.5625 1017.28125 1004.832031 998.652344 C 1070.492188 946.09375 1111.535156 875.582031 1123.503906 794.78125 C 1126.070312 777.46875 1126.09375 722.242188 1123.546875 701.671875 C 1117.394531 651.964844 1102.890625 603.835938 1081.1875 561.097656 C 1071.757812 542.53125 1055.378906 516.828125 1047.355469 508.003906 C 1042.960938 503.167969 1042.679688 503.058594 1043.492188 506.515625 " fill-opacity="1" fill-rule="evenodd"/></svg>